PathFileType	4	(X/Y/Z)	Walk6.trc
DataRate	CameraRate	NumFrames	NumMarkers	Units	OrigDataRate	OrigDataStartFrame	OrigNumFrames
200.000000	200.000000	6	58	mm	200.000000	636	716
Frame#	Times		RCAR		LMT1		RFHD		LTB2		LFHD		LTB3		RUA1		LMT5		LTB4		RElbow		RASI		RFA1		LACR1		LToe		RBHD		LUA1		LASI		RACR1		LTH1		LTH3		RTH3		LCAR		RWRU		LTH2		RLFC		C7		RBack		STRN		LElbow		RTH4		RTH2		CLAV		LTH4		RMT1		LLFC		RWRR		LWRR		RTB4		RTB3		LFA1		LPSI		RPSI		RTB2		RToe		LTB1		RTB1		LWRU		RTH1		LElbowM		LMMAL		LBHD		T10		RLMAL		RMMAL		RCAL		RMT5		LCAL		RElbowM
			X1	Y1	Z1	X2	Y2	Z2	X3	Y3	Z3	X4	Y4	Z4	X5	Y5	Z5	X6	Y6	Z6	X7	Y7	Z7	X8	Y8	Z8	X9	Y9	Z9	X10	Y10	Z10	X11	Y11	Z11	X12	Y12	Z12	X13	Y13	Z13	X14	Y14	Z14	X15	Y15	Z15	X16	Y16	Z16	X17	Y17	Z17	X18	Y18	Z18	X19	Y19	Z19	X20	Y20	Z20	X21	Y21	Z21	X22	Y22	Z22	X23	Y23	Z23	X24	Y24	Z24	X25	Y25	Z25	X26	Y26	Z26	X27	Y27	Z27	X28	Y28	Z28	X29	Y29	Z29	X30	Y30	Z30	X31	Y31	Z31	X32	Y32	Z32	X33	Y33	Z33	X34	Y34	Z34	X35	Y35	Z35	X36	Y36	Z36	X37	Y37	Z37	X38	Y38	Z38	X39	Y39	Z39	X40	Y40	Z40	X41	Y41	Z41	X42	Y42	Z42	X43	Y43	Z43	X44	Y44	Z44	X45	Y45	Z45	X46	Y46	Z46	X47	Y47	Z47	X48	Y48	Z48	X49	Y49	Z49	X50	Y50	Z50	X51	Y51	Z51	X52	Y52	Z52	X53	Y53	Z53	X54	Y54	Z54	X55	Y55	Z55	X56	Y56	Z56	X57	Y57	Z57	X58	Y58	Z58

636	3.18	984	823.63	330.13	1125.6	31.507	4.242	910.03	1583.6	14.815	1017.8	258.97	-89.008	882.75	1587.9	-75.598	1040.5	173.82	-34.462	820.31	1190.9	249.58	1093.4	25.158	-73.567	1040	259.82	-32.002	794.64	1067.2	286.85	923.44	965.1	154.21	847.65	928.92	308.27	786.54	1351	-171.45	1193.5	27.147	-24.111	771.9	1522.7	72.382	747.05	1163.6	-247.72	940.76	952.96	-128.19	808.19	1365.5	142.19	871.59	740.88	-201.72	929.85	589.53	-145.99	788.28	555.72	186.83	671.17	740.48	-277.21	907.93	834.24	313.94	953.09	691.65	-162.86	758.15	471.39	167.84	720.49	1395.2	-3.3322	682.93	1301	109.87	931.8	1228.2	-13.78	685.2	1045.4	-254.66	809.24	635.38	204.15	861.88	628.73	179.56	863.78	1328.5	-18.134	899.83	667.08	-169.02	490.22	46.289	58.89	970.93	478.72	-110.01	959.98	864.51	274.24	687.41	789.26	-238.38	630.77	260.2	97.837	559.83	205.11	100.66	648.33	917.4	-267.74	684.6	939.63	-34.697	685.3	942.49	54.681	612.42	277.38	156.44	536.1	22.771	90.6	1040.3	346.44	-32.704	692.77	315.64	99.965	630.81	802.78	-279.68	834.56	715.87	226.91	668.62	1026.8	-174.79	1022.4	66.259	24.633	736.1	1522	-65.06	664.73	1124.7	6.2073	449.3	154.71	127.92	464.61	151.76	46.647	386.99	182.29	91.54	465.67	56.082	131.99	946.35	31.931	-22.054	789.1	1027.9	195.29
637	3.185	985.7	822.18	328.8	1125.6	31.451	4.3375	915.93	1584.8	13.7	1019.4	258.81	-89.303	888.59	1588.8	-76.706	1041.4	173.6	-34.625	825.76	1191.8	248.61	1093.3	25.222	-73.614	1041.7	259.6	-32.332	799.22	1068.1	285.66	929.45	965.9	153.47	850.66	929.19	306.89	792.95	1351.8	-172.18	1193.6	26.758	-23.977	777.99	1523.7	71.463	754.32	1164.3	-248.44	947.27	954.54	-128.86	814.37	1366.6	141.32	878.02	742.33	-202.67	934.51	590.44	-146.74	798.49	555.03	186.8	680.23	740.72	-277.29	909.78	833.87	312.69	958.83	692.3	-163.38	769.28	470.46	168.18	726.65	1396.1	-4.2356	689.11	1302.2	109.15	937.99	1229.2	-14.629	692.92	1045.9	-255.51	818.36	635.08	203.67	871.03	629.06	178.89	869.95	1329.5	-18.863	905.36	668.25	-169.86	493.28	47.646	58.834	974.58	479.08	-110.54	962.16	863.46	272.98	696.08	789.8	-238.64	639.61	260.67	98.66	568.19	206.65	101.34	656.76	917.62	-268.59	690.8	940.75	-35.018	691.49	943.12	54.395	621.56	278.31	157.12	536.93	22.839	90.634	1042.7	346.22	-33.189	702.87	315.07	101.03	639.84	803.05	-280.67	842.49	716	225.96	676.17	1027.3	-175.65	1022.5	66.29	24.693	742.13	1522.6	-65.97	670.99	1125.6	5.5154	456.59	158	128.14	472.55	154.51	47.027	395.76	187.66	90.996	469.01	58.258	131.49	946.34	31.962	-22.111	793.6	1029.1	193.97
638	3.19	987.32	820.7	327.41	1125.5	31.445	4.4116	921.83	1586	12.594	1020.9	258.66	-89.577	894.42	1589.8	-77.803	1042.3	173.38	-34.757	831.24	1192.7	247.66	1093.3	25.293	-73.651	1043.2	259.38	-32.615	803.81	1069	284.51	935.36	966.69	152.78	853.65	929.48	305.56	799.34	1352.7	-172.87	1193.7	26.482	-23.867	784.09	1524.7	70.57	761.6	1165.1	-249.14	953.71	956.13	-129.53	820.5	1367.6	140.48	884.42	743.77	-203.63	938.99	591.3	-147.49	808.73	554.42	186.8	689.5	741	-277.42	911.57	833.52	311.48	964.47	692.88	-163.87	780.44	469.61	168.55	732.78	1397	-5.0999	695.24	1303.4	108.45	944.14	1230.3	-15.448	700.67	1046.4	-256.37	827.45	634.86	203.2	880.2	629.47	178.3	876.08	1330.5	-19.546	910.78	669.4	-170.71	496.83	49.157	58.801	978.01	479.4	-111.08	964.25	862.39	271.7	704.96	790.37	-238.95	648.25	261.11	99.498	576.86	208.18	102.08	665.29	917.84	-269.47	696.95	941.88	-35.395	697.61	943.78	54.05	630.95	279.28	157.82	538.3	22.967	90.696	1045	346	-33.611	713.19	314.54	102.16	649.03	803.32	-281.69	850.38	716.22	225.04	683.73	1027.7	-176.54	1022.5	66.318	24.729	748.15	1523.2	-66.853	677.21	1126.5	4.8257	464.26	161.22	128.42	480.84	157.2	47.451	404.91	192.87	90.529	472.86	60.516	131.04	946.31	31.976	-22.173	798.06	1030.4	192.69
639	3.195	988.87	819.2	325.98	1125.5	31.474	4.4676	927.72	1587.3	11.502	1022.4	258.49	-89.825	900.26	1590.8	-78.886	1043.2	173.16	-34.853	836.74	1193.6	246.73	1093.2	25.368	-73.678	1044.6	259.15	-32.843	808.41	1069.9	283.4	941.17	967.46	152.16	856.62	929.8	304.29	805.71	1353.6	-173.51	1193.7	26.303	-23.779	790.18	1525.8	69.706	768.86	1165.9	-249.83	960.07	957.71	-130.21	826.58	1368.7	139.7	890.76	745.18	-204.59	943.31	592.13	-148.23	818.96	553.93	186.82	698.99	741.32	-277.59	913.29	833.2	310.3	970.02	693.39	-164.33	791.61	468.87	168.92	738.87	1398	-5.9228	701.32	1304.5	107.77	950.26	1231.4	-16.234	708.45	1046.9	-257.25	836.51	634.74	202.75	889.36	629.98	177.8	882.17	1331.6	-20.183	916.08	670.5	-171.55	500.95	50.815	58.8	981.23	479.68	-111.63	966.25	861.3	270.41	714.03	790.98	-239.32	656.57	261.53	100.33	585.82	209.7	102.85	673.91	918.07	-270.38	703.07	943.03	-35.834	703.65	944.46	53.64	640.57	280.28	158.55	540.29	23.174	90.792	1047	345.77	-33.962	723.74	314.07	103.33	658.39	803.6	-282.73	858.19	716.53	224.13	691.28	1028.2	-177.46	1022.5	66.337	24.738	754.15	1523.9	-67.705	683.38	1127.4	4.1385	472.31	164.37	128.74	489.46	159.8	47.909	414.4	197.88	90.152	477.25	62.853	130.65	946.27	31.977	-22.239	802.51	1031.6	191.47
640	3.2	990.36	817.68	324.51	1125.4	31.526	4.5091	933.63	1588.5	10.427	1023.8	258.32	-90.045	906.1	1591.7	-79.951	1043.9	172.95	-34.909	842.24	1194.5	245.84	1093.2	25.439	-73.699	1045.9	258.92	-33.011	813.01	1070.8	282.33	946.88	968.2	151.58	859.57	930.14	303.09	812.05	1354.6	-174.11	1193.7	26.206	-23.708	796.28	1526.8	68.871	776.13	1166.7	-250.52	966.34	959.26	-130.88	832.61	1369.7	138.96	897.03	746.55	-205.53	947.47	592.92	-148.96	829.15	553.54	186.84	708.68	741.67	-277.82	914.97	832.9	309.15	975.47	693.84	-164.75	802.77	468.26	169.27	744.94	1398.9	-6.702	707.35	1305.7	107.11	956.34	1232.5	-16.984	716.25	1047.4	-258.15	845.5	634.72	202.32	898.49	630.59	177.39	888.22	1332.6	-20.774	921.27	671.57	-172.37	505.67	52.604	58.84	984.26	479.93	-112.18	968.18	860.2	269.09	723.29	791.62	-239.74	664.4	261.92	101.12	595.06	211.22	103.65	682.62	918.3	-271.32	709.14	944.2	-36.338	709.62	945.18	53.161	650.43	281.32	159.28	543.01	23.477	90.926	1048.9	345.53	-34.237	734.48	313.67	104.53	667.91	803.87	-283.81	865.93	716.93	223.25	698.83	1028.8	-178.42	1022.5	66.342	24.72	760.15	1524.5	-68.527	689.52	1128.3	3.4546	480.72	167.42	129.1	498.4	162.35	48.39	424.19	202.67	89.873	482.25	65.26	130.33	946.22	31.966	-22.31	806.92	1032.9	190.29
641	3.205	991.8	816.15	323	1125.3	31.594	4.5388	939.53	1589.7	9.3717	1025.2	258.14	-90.235	911.93	1592.7	-80.996	1044.6	172.74	-34.926	847.75	1195.4	244.97	1093.2	25.506	-73.714	1047.1	258.69	-33.12	817.62	1071.6	281.29	952.51	968.91	151.06	862.51	930.49	301.95	818.37	1355.5	-174.68	1193.7	26.178	-23.651	802.36	1527.9	68.066	783.4	1167.6	-251.19	972.54	960.77	-131.55	838.59	1370.7	138.27	903.22	747.88	-206.45	951.47	593.66	-149.68	839.27	553.29	186.86	718.59	742.06	-278.1	916.61	832.63	308.04	980.82	694.22	-165.16	813.88	467.76	169.6	750.97	1399.9	-7.4353	713.34	1306.8	106.48	962.4	1233.6	-17.695	724.07	1048	-259.07	854.42	634.81	201.9	907.57	631.31	177.08	894.24	1333.6	-21.322	926.33	672.6	-173.19	511.05	54.504	58.932	987.12	480.13	-112.74	970.03	859.1	267.77	732.73	792.3	-240.2	671.61	262.26	101.86	604.56	212.73	104.47	691.41	918.55	-272.3	715.16	945.37	-36.913	715.52	945.93	52.608	660.49	282.4	160.01	546.54	23.889	91.106	1050.7	345.28	-34.436	745.41	313.36	105.73	677.59	804.14	-284.89	873.56	717.43	222.4	706.38	1029.3	-179.41	1022.5	66.331	24.675	766.14	1525.2	-69.318	695.62	1129.3	2.7745	489.48	170.4	129.49	507.62	164.82	48.883	434.23	207.21	89.697	487.89	67.724	130.1	946.15	31.946	-22.384	811.3	1034.1	189.17
